<?xml version="1.0" encoding="UTF-8" standalone="no"?>
<!DOCTYPE svg PUBLIC "-//W3C//DTD SVG 1.1//EN"
 "http://www.w3.org/Graphics/SVG/1.1/DTD/svg11.dtd">
<!-- Generated by graphviz version 5.0.0 (20220707.1540)
 -->

<svg width="62pt" height="116pt"
 viewBox="0.00 0.00 62.00 116.00" xmlns="http://www.w3.org/2000/svg" xmlns:xlink="http://www.w3.org/1999/xlink">
<g id="graph0" class="graph" transform="scale(1 1) rotate(0) translate(4 112)">
<polygon fill="white" stroke="transparent" points="-4,4 -4,-112 58,-112 58,4 -4,4"/>

<g id="node1" class="node">

<polygon fill="#4c6edb" stroke="#4c6edb" points="54,-108 0,-108 0,-72 54,-72 54,-108"/>
</g>

<g id="node2" class="node">

<polygon fill="#aff05b" stroke="#aff05b" points="54,-36 0,-36 0,0 54,0 54,-36"/>
</g>

<g id="edge1" class="edge">

<path fill="none" stroke="#ff7847" d="M21.08,-71.7C20.29,-63.98 20.06,-54.71 20.4,-46.11"/>
<polygon fill="#ff7847" stroke="#ff7847" points="23.9,-46.32 21.1,-36.1 16.92,-45.84 23.9,-46.32"/>
</g>

<g id="edge2" class="edge">

<path fill="none" stroke="#ff7847" d="M32.9,-36.1C33.7,-43.79 33.94,-53.05 33.6,-61.67"/>
<polygon fill="#ff7847" stroke="#ff7847" points="30.11,-61.48 32.92,-71.7 37.09,-61.96 30.11,-61.48"/>
</g>
</g>
</svg>
