<?xml version="1.0" encoding="UTF-8" standalone="no"?>
<!DOCTYPE svg PUBLIC "-//W3C//DTD SVG 1.1//EN"
 "http://www.w3.org/Graphics/SVG/1.1/DTD/svg11.dtd">
<!-- Generated by graphviz version 5.0.0 (20220707.1540)
 -->

<svg width="331pt" height="355pt"
 viewBox="0.00 0.00 331.00 355.00" xmlns="http://www.w3.org/2000/svg" xmlns:xlink="http://www.w3.org/1999/xlink">
<g id="graph0" class="graph" transform="scale(1 1) rotate(0) translate(4 351)">
<polygon fill="white" stroke="transparent" points="-4,4 -4,-351 327,-351 327,4 -4,4"/>
<text text-anchor="middle" x="161.5" y="-7.8" font-family="Times,serif" font-size="14.00">rendered by github.com/sandstorm/dependency&#45;analysis</text>

<g id="node1" class="node">

<polygon fill="#6ef667" stroke="#6ef667" points="120.5,-131 52.5,-131 52.5,-95 120.5,-95 120.5,-131"/>
<text text-anchor="middle" x="86.5" y="-109.3" font-family="Times,serif" font-size="14.00">rendering</text>
</g>

<g id="node2" class="node">

<polygon fill="#aff05b" stroke="#aff05b" points="214.5,-59 120.5,-59 120.5,-23 214.5,-23 214.5,-59"/>
<text text-anchor="middle" x="167.5" y="-37.3" font-family="Times,serif" font-size="14.00">dataStructures</text>
</g>

<g id="edge1" class="edge">

<path fill="none" stroke="black" d="M106.52,-94.7C116.63,-85.97 129.04,-75.24 140.02,-65.75"/>
<polygon fill="black" stroke="black" points="142.43,-68.29 147.71,-59.1 137.85,-62.99 142.43,-68.29"/>
</g>

<g id="node3" class="node">

<polygon fill="#44abd8" stroke="#44abd8" points="175.5,-275 121.5,-275 121.5,-239 175.5,-239 175.5,-275"/>
<text text-anchor="middle" x="148.5" y="-253.3" font-family="Times,serif" font-size="14.00">cmd</text>
</g>

<g id="edge2" class="edge">

<path fill="none" stroke="black" d="M141.02,-238.87C130.36,-214.46 110.7,-169.43 98.13,-140.64"/>
<polygon fill="black" stroke="black" points="101.21,-138.95 94.01,-131.19 94.8,-141.75 101.21,-138.95"/>
</g>

<g id="edge3" class="edge">

<path fill="none" stroke="black" d="M150.02,-238.85C153.31,-201.83 161.09,-114.18 165.07,-69.39"/>
<polygon fill="black" stroke="black" points="168.57,-69.5 165.97,-59.23 161.6,-68.88 168.57,-69.5"/>
</g>

<g id="node4" class="node">

<polygon fill="#56dfa3" stroke="#56dfa3" points="236.5,-203 176.5,-203 176.5,-167 236.5,-167 236.5,-203"/>
<text text-anchor="middle" x="206.5" y="-181.3" font-family="Times,serif" font-size="14.00">analysis</text>
</g>

<g id="edge4" class="edge">

<path fill="none" stroke="black" d="M162.84,-238.7C169.79,-230.3 178.27,-220.07 185.9,-210.86"/>
<polygon fill="black" stroke="black" points="188.64,-213.04 192.33,-203.1 183.25,-208.57 188.64,-213.04"/>
</g>

<g id="edge5" class="edge">

<path fill="none" stroke="black" d="M201.8,-166.87C195.12,-142.56 182.83,-97.82 174.92,-69.01"/>
<polygon fill="black" stroke="black" points="178.24,-67.91 172.22,-59.19 171.49,-69.76 178.24,-67.91"/>
</g>

<g id="node5" class="node">

<polygon fill="#6ef667" stroke="#6ef667" points="270.5,-131 214.5,-131 214.5,-95 270.5,-95 270.5,-131"/>
<text text-anchor="middle" x="242.5" y="-109.3" font-family="Times,serif" font-size="14.00">parsing</text>
</g>

<g id="edge6" class="edge">

<path fill="none" stroke="black" d="M215.4,-166.7C219.5,-158.73 224.45,-149.1 228.99,-140.26"/>
<polygon fill="black" stroke="black" points="232.24,-141.6 233.7,-131.1 226.02,-138.4 232.24,-141.6"/>
</g>

<g id="edge8" class="edge">

<path fill="none" stroke="black" d="M223.96,-94.7C214.7,-86.05 203.34,-75.45 193.24,-66.03"/>
<polygon fill="black" stroke="black" points="195.52,-63.37 185.83,-59.1 190.75,-68.49 195.52,-63.37"/>
</g>

<g id="node6" class="node">

<polygon fill="#4c6edb" stroke="#4c6edb" points="175.5,-347 121.5,-347 121.5,-311 175.5,-311 175.5,-347"/>
<text text-anchor="middle" x="148.5" y="-325.3" font-family="Times,serif" font-size="14.00">main</text>
</g>

<g id="edge7" class="edge">

<path fill="none" stroke="black" d="M148.5,-310.7C148.5,-302.98 148.5,-293.71 148.5,-285.11"/>
<polygon fill="black" stroke="black" points="152,-285.1 148.5,-275.1 145,-285.1 152,-285.1"/>
</g>
</g>
</svg>
