<?xml version="1.0" encoding="UTF-8" standalone="no"?>
<!DOCTYPE svg PUBLIC "-//W3C//DTD SVG 1.1//EN"
 "http://www.w3.org/Graphics/SVG/1.1/DTD/svg11.dtd">
<!-- Generated by graphviz version 5.0.0 (20220707.1540)
 -->

<svg width="1200pt" height="620pt"
 viewBox="0.00 0.00 1200.00 620.00" xmlns="http://www.w3.org/2000/svg" xmlns:xlink="http://www.w3.org/1999/xlink">
<g id="graph0" class="graph" transform="scale(1 1) rotate(0) translate(4 616)">
<polygon fill="white" stroke="transparent" points="-4,4 -4,-616 1196,-616 1196,4 -4,4"/>

<g id="node1" class="node">

<polygon fill="#5be794" stroke="#5be794" points="626,-612 572,-612 572,-576 626,-576 626,-612"/>
</g>

<g id="node2" class="node">

<polygon fill="#4abecb" stroke="#4abecb" points="234,-468 180,-468 180,-432 234,-432 234,-468"/>
</g>

<g id="edge1" class="edge">

<path fill="none" stroke="#ca3dab" d="M571.57,-591.25C524.89,-585.89 427.46,-571.77 350.63,-540.93 308.44,-523.95 264.84,-495.16 236.74,-474.88"/>
<path fill="none" stroke="#bf3caf" d="M571.8,-589.26C525.17,-583.91 427.74,-569.79 351.37,-539.07 309.54,-522.28 265.94,-493.49 237.91,-473.26"/>
<polygon fill="#ca3dab" stroke="#ca3dab" points="239.28,-471.15 229.14,-468.08 235.14,-476.81 239.28,-471.15"/>
</g>

<g id="node3" class="node">

<polygon fill="#71f662" stroke="#71f662" points="160,-108 106,-108 106,-72 160,-72 160,-108"/>
</g>

<g id="edge13" class="edge">

<path fill="none" stroke="#b43cb1" d="M571.66,-591.87C475.9,-584.27 158.39,-558.05 115.63,-540.93 55.7,-516.78 0,-516.98 -1,-451 -1,-451 -1,-451 -1,-377 -0.82,-271.31 73.97,-163.02 111.42,-115.38"/>
<path fill="none" stroke="#a83cb3" d="M571.82,-589.88C476.07,-582.28 158.55,-556.06 116.37,-539.07 55.7,-514.78 0,-514.98 1,-451 1,-451 1,-451 1,-377 0.82,-272.45 75.61,-164.15 112.99,-116.61"/>
<polygon fill="#b43cb1" stroke="#b43cb1" points="115.01,-118.09 118.51,-108.09 109.54,-113.72 115.01,-118.09"/>
</g>

<g id="node5" class="node">

<polygon fill="#43a4db" stroke="#43a4db" points="562,-396 508,-396 508,-360 562,-360 562,-396"/>
</g>

<g id="edge10" class="edge">

<path fill="none" stroke="#d53ea6" d="M590.61,-575.61C585.9,-565.4 580.15,-552.15 576,-540 560.24,-493.9 547.43,-438.55 540.54,-406.22"/>
<polygon fill="#d53ea6" stroke="#d53ea6" points="543.91,-405.25 538.43,-396.18 537.06,-406.69 543.91,-405.25"/>
</g>

<g id="node8" class="node">

<polygon fill="#71f662" stroke="#71f662" points="1010,-108 956,-108 956,-72 1010,-72 1010,-108"/>
</g>

<g id="edge44" class="edge">

<path fill="none" stroke="black" d="M626.25,-590.23C722.4,-579.72 1040,-538.37 1040,-451 1040,-451 1040,-451 1040,-233 1040,-189.8 1017,-144.19 1000.22,-116.66"/>
<polygon fill="black" stroke="black" points="1003.09,-114.65 994.81,-108.04 997.17,-118.37 1003.09,-114.65"/>
</g>

<g id="node9" class="node">

<polygon fill="#52d5b1" stroke="#52d5b1" points="614,-252 560,-252 560,-216 614,-216 614,-252"/>
</g>

<g id="edge19" class="edge">

<path fill="none" stroke="#df40a1" d="M593.29,-575.95C590,-549.29 590,-496.11 590,-451 590,-451 590,-451 590,-377 590,-336.85 585.18,-290.55 583.94,-262.02"/>
<polygon fill="#df40a1" stroke="#df40a1" points="587.44,-261.91 583.66,-252.01 580.44,-262.1 587.44,-261.91"/>
</g>

<g id="node10" class="node">

<polygon fill="#aff05b" stroke="#aff05b" points="935,-36 881,-36 881,0 935,0 935,-36"/>
</g>

<g id="edge18" class="edge">

<path fill="none" stroke="#e8429a" d="M626.17,-591.98C731.47,-587.83 1108.89,-570.91 1152,-540 1187.25,-514.73 1192,-494.37 1192,-451 1192,-451 1192,-451 1192,-161 1192,-112.02 1168.31,-98.31 1127,-72 1059.82,-29.21 1025.48,-59.33 945.25,-35.85"/>
<polygon fill="#e8429a" stroke="#e8429a" points="945.82,-32.36 935.23,-32.71 943.73,-39.04 945.82,-32.36"/>
</g>

<g id="node11" class="node">

<polygon fill="#65f278" stroke="#65f278" points="783,-180 729,-180 729,-144 783,-144 783,-180"/>
</g>

<g id="edge45" class="edge">

<path fill="none" stroke="black" d="M626.35,-582.89C671.33,-564.29 756,-520.09 756,-451 756,-451 756,-451 756,-305 756,-265 756,-218.65 756,-190.08"/>
<polygon fill="black" stroke="black" points="759.5,-190.05 756,-180.05 752.5,-190.05 759.5,-190.05"/>
</g>

<g id="node12" class="node">

<polygon fill="#71f662" stroke="#71f662" points="514,-108 460,-108 460,-72 514,-72 514,-108"/>
</g>

<g id="edge46" class="edge">

<path fill="none" stroke="black" d="M571.97,-591.35C539.39,-587.73 485.93,-576.28 461,-540 368.72,-405.7 444.17,-191.99 475.21,-117.58"/>
<polygon fill="black" stroke="black" points="478.58,-118.6 479.27,-108.03 472.13,-115.86 478.58,-118.6"/>
</g>

<g id="edge20" class="edge">

<path fill="none" stroke="#bf3caf" d="M234.07,-433.56C235.73,-433.01 237.37,-432.48 239,-432 329.79,-405.12 440.96,-389.24 497.88,-382.63"/>
<polygon fill="#bf3caf" stroke="#bf3caf" points="498.32,-386.1 507.86,-381.5 497.53,-379.14 498.32,-386.1"/>
</g>

<g id="edge29" class="edge">

<path fill="none" stroke="#ca3dab" d="M234.02,-433.78C301.15,-395.98 475.52,-297.78 551.14,-255.19"/>
<polygon fill="#ca3dab" stroke="#ca3dab" points="552.86,-258.24 559.86,-250.28 549.43,-252.14 552.86,-258.24"/>
</g>

<g id="node17" class="node">

<polygon fill="#aff05b" stroke="#aff05b" points="103,-36 49,-36 49,0 103,0 103,-36"/>
</g>

<g id="edge62" class="edge">

<path fill="none" stroke="black" d="M187.98,-431.73C178.07,-421.97 166.31,-409.13 158,-396 121.08,-337.71 116.59,-318.97 100,-252 81.98,-179.22 77.47,-90.42 76.35,-46.42"/>
<polygon fill="black" stroke="black" points="79.85,-46.16 76.14,-36.24 72.85,-46.31 79.85,-46.16"/>
</g>

<g id="edge58" class="edge">

<path fill="none" stroke="black" d="M136.84,-108.39C142.4,-135.06 152,-187.73 152,-233 152,-307 152,-307 152,-307 152,-349.99 174.19,-395.66 190.38,-423.26"/>
<polygon fill="black" stroke="black" points="187.44,-425.15 195.6,-431.9 193.43,-421.53 187.44,-425.15"/>
</g>

<g id="node4" class="node">

<polygon fill="#84f557" stroke="#84f557" points="255,-324 201,-324 201,-288 255,-288 255,-324"/>
</g>

<g id="edge2" class="edge">

<path fill="none" stroke="#a83cb3" d="M144.86,-108.19C151.56,-118.33 159.81,-131.58 166,-144 188.66,-189.48 208.51,-245.38 219.33,-277.92"/>
<polygon fill="#a83cb3" stroke="#a83cb3" points="216.07,-279.22 222.52,-287.62 222.72,-277.03 216.07,-279.22"/>
</g>

<g id="edge11" class="edge">

<path fill="none" stroke="#b43cb1" d="M157.07,-108.13C226,-157.16 424.17,-298.15 502.54,-353.91"/>
<polygon fill="#b43cb1" stroke="#b43cb1" points="500.88,-357.02 511.06,-359.97 504.94,-351.32 500.88,-357.02"/>
</g>

<g id="edge59" class="edge">

<path fill="none" stroke="black" d="M118.91,-71.7C112.08,-63.3 103.74,-53.07 96.24,-43.86"/>
<polygon fill="black" stroke="black" points="98.96,-41.65 89.93,-36.1 93.53,-46.07 98.96,-41.65"/>
</g>

<g id="edge38" class="edge">

<path fill="none" stroke="black" d="M225.46,-324.19C221.87,-348.42 215.3,-392.89 211.04,-421.68"/>
<polygon fill="black" stroke="black" points="207.53,-421.47 209.53,-431.87 214.46,-422.49 207.53,-421.47"/>
</g>

<g id="edge21" class="edge">

<path fill="none" stroke="#a83cb3" d="M255.18,-313.2C310.32,-325.77 435.36,-354.28 497.91,-368.54"/>
<polygon fill="#a83cb3" stroke="#a83cb3" points="497.23,-371.98 507.76,-370.79 498.78,-365.15 497.23,-371.98"/>
</g>

<g id="edge39" class="edge">

<path fill="none" stroke="black" d="M228.29,-287.97C228.12,-246.36 222.25,-138.14 169,-72 154.44,-53.92 131.95,-40.87 112.74,-32.24"/>
<polygon fill="black" stroke="black" points="113.9,-28.93 103.33,-28.24 111.17,-35.37 113.9,-28.93"/>
</g>

<g id="edge54" class="edge">

<path fill="none" stroke="black" d="M507.77,-382.77C457.33,-389.48 347.12,-405.32 257,-432 252.73,-433.26 248.3,-434.83 243.89,-436.48"/>
<polygon fill="black" stroke="black" points="242.4,-433.31 234.35,-440.19 244.94,-439.83 242.4,-433.31"/>
</g>

<g id="node6" class="node">

<polygon fill="#84f557" stroke="#84f557" points="878,-324 824,-324 824,-288 878,-288 878,-324"/>
</g>

<g id="edge3" class="edge">

<path fill="none" stroke="#ff6856" d="M560.16,-361.27C616.99,-347.95 747.35,-319.06 811.89,-305.49"/>
<path fill="none" stroke="#ff5571" d="M560.61,-363.22C617.42,-349.9 747.78,-321.01 812.3,-307.45"/>
<path fill="none" stroke="#f8488b" d="M561.07,-365.16C617.85,-351.85 748.22,-322.97 812.71,-309.4"/>
<path fill="none" stroke="#d53ea6" d="M561.53,-367.11C618.29,-353.8 748.65,-324.92 813.12,-311.36"/>
<path fill="none" stroke="#bf3caf" d="M561.98,-369.06C618.72,-355.76 749.08,-326.87 813.53,-313.32"/>
<path fill="none" stroke="#b43cb1" d="M562.44,-371.01C619.15,-357.71 749.52,-328.82 813.94,-315.28"/>
<path fill="none" stroke="#a83cb3" d="M562.9,-372.95C619.58,-359.66 749.95,-330.78 814.36,-317.23"/>
<path fill="none" stroke="#903db2" d="M563.35,-374.9C620.02,-361.61 750.38,-332.73 814.77,-319.19"/>
<path fill="none" stroke="#843eb1" d="M563.81,-376.85C620.45,-363.57 750.81,-334.68 815.18,-321.15"/>
<path fill="none" stroke="#793fae" d="M564.27,-378.79C620.88,-365.52 751.25,-336.64 815.59,-323.1"/>
<polygon fill="#ff6856" stroke="#ff6856" points="814.79,-317.65 823.86,-312.18 813.36,-310.8 814.79,-317.65"/>
</g>

<g id="edge55" class="edge">

<path fill="none" stroke="black" d="M562.26,-375.19C634.68,-370.04 830.25,-353.67 887,-324 956.28,-287.78 971.33,-256.38 988,-180 992.45,-159.62 990.83,-136.03 988.29,-118.26"/>
<polygon fill="black" stroke="black" points="991.73,-117.6 986.69,-108.28 984.82,-118.71 991.73,-117.6"/>
</g>

<g id="edge56" class="edge">

<path fill="none" stroke="black" d="M536.69,-359.87C543.05,-335.46 559.26,-290.43 571.84,-261.64"/>
<polygon fill="black" stroke="black" points="575.18,-262.74 576.11,-252.19 568.8,-259.86 575.18,-262.74"/>
</g>

<g id="edge57" class="edge">

<path fill="none" stroke="black" d="M528.73,-359.97C516.53,-312.19 493.52,-176.62 487.41,-118.27"/>
<polygon fill="black" stroke="black" points="490.89,-117.93 486.47,-108.31 483.92,-118.59 490.89,-117.93"/>
</g>

<g id="edge8" class="edge">

<path fill="none" stroke="#793fae" d="M823.81,-313.96C767.13,-327.25 636.87,-356.11 572.38,-369.68"/>
<polygon fill="#793fae" stroke="#793fae" points="571.32,-366.32 562.25,-371.8 572.75,-373.18 571.32,-366.32"/>
</g>

<g id="edge33" class="edge">

<path fill="none" stroke="black" d="M873.34,-287.8C886.41,-278.68 902.17,-266.37 913,-252 944.14,-210.68 961.06,-151.63 971.53,-117.72"/>
<polygon fill="black" stroke="black" points="974.91,-118.64 974.58,-108.05 968.24,-116.53 974.91,-118.64"/>
</g>

<g id="edge23" class="edge">

<path fill="none" stroke="#ff7847" d="M855.5,-281.5C862.16,-272.18 870.22,-259.14 873.59,-248.44 897.19,-181.11 899.02,-91.91 898.13,-47.59"/>
<path fill="none" stroke="#ff6856" d="M857.13,-282.66C863.86,-273.23 871.92,-260.19 875.48,-249.09 899.19,-181.15 901.02,-91.96 900.13,-47.55"/>
<path fill="none" stroke="#ff5571" d="M858.76,-283.82C865.56,-274.28 873.62,-261.24 877.38,-249.73 901.19,-181.19 903.02,-92 902.13,-47.51"/>
<path fill="none" stroke="#ff507a" d="M860.39,-284.98C867.26,-275.33 875.32,-262.29 879.27,-250.38 903.19,-181.23 905.02,-92.04 904.13,-47.47"/>
<path fill="none" stroke="#f8488b" d="M862.02,-286.14C868.96,-276.38 877.03,-263.34 881.16,-251.03 905.19,-181.28 907.02,-92.08 906.13,-47.43"/>
<path fill="none" stroke="#f04493" d="M863.65,-287.3C870.66,-277.44 878.73,-264.4 883.05,-251.68 907.19,-181.32 909.02,-92.12 908.13,-47.39"/>
<path fill="none" stroke="#d53ea6" d="M865.28,-288.45C872.36,-278.49 880.43,-265.45 884.95,-252.32 909.19,-181.36 911.02,-92.16 910.13,-47.35"/>
<path fill="none" stroke="#bf3caf" d="M866.91,-289.61C874.07,-279.54 882.13,-266.5 886.84,-252.97 911.18,-181.4 913.02,-92.2 912.13,-47.31"/>
<path fill="none" stroke="#b43cb1" d="M868.54,-290.77C875.77,-280.59 883.83,-267.55 888.73,-253.62 913.18,-181.44 915.02,-92.24 914.13,-47.27"/>
<path fill="none" stroke="#a83cb3" d="M870.17,-291.93C877.47,-281.64 885.53,-268.6 890.62,-254.27 915.18,-181.48 917.02,-92.28 916.13,-47.23"/>
<path fill="none" stroke="#903db2" d="M871.8,-293.09C879.17,-282.7 887.23,-269.65 892.52,-254.91 917.18,-181.52 919.02,-92.33 918.13,-47.19"/>
<path fill="none" stroke="#843eb1" d="M873.43,-294.25C880.87,-283.75 888.93,-270.71 894.41,-255.56 919.18,-181.56 921.02,-92.37 920.13,-47.15"/>
<polygon fill="#ff7847" stroke="#ff7847" points="912.97,-47.12 908.83,-36.23 905.27,-47.33 912.97,-47.12"/>
</g>

<g id="node13" class="node">

<polygon fill="#aff05b" stroke="#aff05b" points="636,-36 582,-36 582,0 636,0 636,-36"/>
</g>

<g id="edge34" class="edge">

<path fill="none" stroke="black" d="M852.62,-287.83C853.52,-277.47 854.55,-263.99 855,-252 855.6,-236.01 858.59,-231.59 855,-216 847.02,-181.33 844.1,-170.17 820,-144 770.16,-89.87 691.45,-51.86 645.57,-32.87"/>
<polygon fill="black" stroke="black" points="646.6,-29.51 636.02,-29 643.97,-36 646.6,-29.51"/>
</g>

<g id="node7" class="node">

<polygon fill="#84f557" stroke="#84f557" points="690,-324 636,-324 636,-288 690,-288 690,-324"/>
</g>

<g id="edge4" class="edge">

<path fill="none" stroke="#ff5571" d="M635.89,-321.82C616.98,-332.17 591.54,-346.08 570.94,-357.35"/>
<polygon fill="#ff5571" stroke="#ff5571" points="569.24,-354.29 562.15,-362.15 572.6,-360.43 569.24,-354.29"/>
</g>

<g id="edge6" class="edge">

<path fill="none" stroke="#ff5b68" d="M638.3,-287.7C628.12,-279.14 616.56,-268.66 606.93,-259.3"/>
<polygon fill="#ff5b68" stroke="#ff5b68" points="609.24,-256.67 599.68,-252.1 604.3,-261.63 609.24,-256.67"/>
</g>

<g id="edge15" class="edge">

<path fill="none" stroke="#ff615f" d="M664.64,-287.84C666.76,-269.6 671.26,-240.1 680,-216 692.48,-181.59 695.17,-170.9 720,-144 764.4,-95.91 830.87,-57.37 871.73,-36.38"/>
<polygon fill="#ff615f" stroke="#ff615f" points="873.44,-39.44 880.78,-31.8 870.28,-33.19 873.44,-39.44"/>
</g>

<g id="edge5" class="edge">

<path fill="none" stroke="#f04493" d="M985.11,-108.05C982.41,-139.23 965.36,-206.41 931,-252 919.55,-267.2 902.58,-280.08 887.09,-289.34"/>
<polygon fill="#f04493" stroke="#f04493" points="885.18,-286.4 878.19,-294.37 888.62,-292.5 885.18,-286.4"/>
</g>

<g id="edge28" class="edge">

<path fill="none" stroke="#e8429a" d="M600.9,-250.53C607.83,-277.93 613.96,-331.04 614,-377 614,-451 614,-451 614,-451 614,-491 614,-537.35 611.69,-566.4"/>
<path fill="none" stroke="#df40a1" d="M598.96,-251.02C605.84,-278.16 611.97,-331.27 612,-377 612,-451 612,-451 612,-451 612,-491 612,-537.35 609.7,-566.24"/>
<path fill="none" stroke="#d53ea6" d="M597.02,-251.52C603.85,-278.39 609.99,-331.5 610,-377 610,-451 610,-451 610,-451 610,-491 610,-537.35 607.7,-566.08"/>
<path fill="none" stroke="#ca3dab" d="M595.08,-252.01C601.87,-278.62 608,-331.72 608,-377 608,-451 608,-451 608,-451 608,-491 608,-537.35 605.71,-565.92"/>
<path fill="none" stroke="#bf3caf" d="M593.15,-252.5C599.88,-278.85 606.01,-331.95 606,-377 606,-451 606,-451 606,-451 606,-491 606,-537.35 603.71,-565.76"/>
<path fill="none" stroke="#b43cb1" d="M591.21,-253C597.89,-279.08 604.03,-332.18 604,-377 604,-451 604,-451 604,-451 604,-491 604,-537.35 601.72,-565.6"/>
<path fill="none" stroke="#a83cb3" d="M589.27,-253.49C595.91,-279.3 602.04,-332.41 602,-377 602,-451 602,-451 602,-451 602,-491 602,-537.35 599.73,-565.44"/>
<polygon fill="#e8429a" stroke="#e8429a" points="602.22,-565.65 604.71,-575.95 609.18,-566.35 602.22,-565.65"/>
</g>

<g id="edge7" class="edge">

<path fill="none" stroke="#903db2" d="M585.3,-252.19C578.92,-276.64 562.7,-321.67 550.13,-350.44"/>
<polygon fill="#903db2" stroke="#903db2" points="546.79,-349.32 545.86,-359.87 553.17,-352.21 546.79,-349.32"/>
</g>

<g id="edge24" class="edge">

<path fill="none" stroke="#ff615f" d="M612.75,-250.57C622.96,-259.15 634.53,-269.63 644.24,-279.04"/>
<path fill="none" stroke="#ff5b68" d="M611.47,-252.1C621.62,-260.64 633.19,-271.11 642.85,-280.48"/>
<path fill="none" stroke="#ff5571" d="M610.18,-253.64C620.28,-262.12 631.84,-272.59 641.46,-281.91"/>
<polygon fill="#ff615f" stroke="#ff615f" points="640.56,-283.14 650.13,-287.7 645.49,-278.17 640.56,-283.14"/>
</g>

<g id="edge26" class="edge">

<path fill="none" stroke="#9c3db3" d="M589.87,-215.91C602.26,-182.81 642.74,-109.89 699,-72 751.41,-36.71 826.22,-24.89 870.82,-20.95"/>
<polygon fill="#9c3db3" stroke="#9c3db3" points="871.25,-24.43 880.94,-20.15 870.7,-17.45 871.25,-24.43"/>
</g>

<g id="edge31" class="edge">

<path fill="none" stroke="#ff507a" d="M612.92,-216.76C641.57,-204.17 686.51,-185.56 718.27,-173.15"/>
<path fill="none" stroke="#fe4b83" d="M613.72,-218.59C642.33,-206.01 687.27,-187.41 718.99,-175.02"/>
<path fill="none" stroke="#f8488b" d="M614.53,-220.42C643.1,-207.86 688.04,-189.26 719.72,-176.88"/>
<path fill="none" stroke="#f04493" d="M615.33,-222.25C643.86,-209.71 688.8,-191.11 720.45,-178.74"/>
<polygon fill="#ff507a" stroke="#ff507a" points="720.68,-179.19 728.74,-172.32 718.15,-172.66 720.68,-179.19"/>
</g>

<g id="edge25" class="edge">

<path fill="none" stroke="#ff7847" d="M568.8,-217.13C548.78,-192.4 516.4,-146.8 498.19,-117.95"/>
<path fill="none" stroke="#ff704e" d="M570.35,-215.87C550.41,-191.24 518.03,-145.64 499.88,-116.88"/>
<path fill="none" stroke="#ff6856" d="M571.91,-214.61C552.04,-190.09 519.66,-144.48 501.57,-115.82"/>
<polygon fill="#ff7847" stroke="#ff7847" points="502.74,-114.86 494.51,-108.19 496.78,-118.54 502.74,-114.86"/>
</g>

<g id="edge40" class="edge">

<path fill="none" stroke="black" d="M588.76,-215.85C592.57,-178.83 601.58,-91.18 606.18,-46.39"/>
<polygon fill="black" stroke="black" points="609.69,-46.54 607.23,-36.23 602.72,-45.82 609.69,-46.54"/>
</g>

<g id="edge27" class="edge">

<path fill="none" stroke="#843eb1" d="M935.16,-31.86C967.74,-47.3 1018.13,-71.24 1019,-72 1054.82,-103.13 1078,-113.54 1078,-161 1078,-235 1078,-235 1078,-235 1078,-339.74 695.06,-368.71 572.35,-375.3"/>
<polygon fill="#843eb1" stroke="#843eb1" points="572.11,-371.81 562.3,-375.82 572.47,-378.8 572.11,-371.81"/>
</g>

<g id="edge9" class="edge">

<path fill="none" stroke="#ff7847" d="M882.07,-34.12C843.45,-38.18 770.51,-50.22 724.26,-82.78 677.57,-112.78 639.76,-175.1 617.96,-211.37"/>
<path fill="none" stroke="#ff6856" d="M881.86,-32.13C843.13,-36.21 770.19,-48.24 723.14,-81.12 675.86,-111.75 638.05,-174.07 616.25,-210.34"/>
<path fill="none" stroke="#ff615f" d="M881.64,-30.14C842.8,-34.24 769.86,-46.27 722.03,-79.47 674.15,-110.71 636.34,-173.03 614.53,-209.31"/>
<path fill="none" stroke="#ff5571" d="M881.43,-28.15C842.48,-32.26 769.53,-44.3 720.91,-77.81 672.44,-109.67 634.63,-171.99 612.82,-208.28"/>
<path fill="none" stroke="#ff507a" d="M881.22,-26.16C842.15,-30.29 769.21,-42.32 719.79,-76.15 670.73,-108.64 632.92,-170.95 611.11,-207.25"/>
<path fill="none" stroke="#f8488b" d="M881.01,-24.17C841.82,-28.32 768.88,-40.35 718.68,-74.49 669.02,-107.6 631.21,-169.92 609.39,-206.22"/>
<path fill="none" stroke="#f04493" d="M880.8,-22.19C841.5,-26.34 768.56,-38.38 717.56,-72.83 667.31,-106.56 629.5,-168.88 607.68,-205.19"/>
<path fill="none" stroke="#e8429a" d="M880.59,-20.2C841.17,-24.37 768.23,-36.4 716.44,-71.17 665.6,-105.52 627.79,-167.84 605.96,-204.16"/>
<path fill="none" stroke="#d53ea6" d="M880.38,-18.21C840.85,-22.4 767.91,-34.43 715.32,-69.51 663.89,-104.49 626.08,-166.81 604.25,-203.13"/>
<path fill="none" stroke="#bf3caf" d="M880.17,-16.22C840.52,-20.42 767.58,-32.46 714.21,-67.85 662.18,-103.45 624.37,-165.77 602.53,-202.1"/>
<path fill="none" stroke="#b43cb1" d="M879.96,-14.23C840.2,-18.45 767.26,-30.48 713.09,-66.19 660.47,-102.41 622.66,-164.73 600.82,-201.07"/>
<path fill="none" stroke="#a83cb3" d="M879.75,-12.24C839.87,-16.48 766.93,-28.51 711.97,-64.53 658.76,-101.37 620.95,-163.69 599.11,-200.04"/>
<path fill="none" stroke="#9c3db3" d="M879.54,-10.25C839.55,-14.5 766.61,-26.54 710.86,-62.88 657.05,-100.34 619.24,-162.66 597.39,-199.01"/>
<path fill="none" stroke="#903db2" d="M879.33,-8.26C839.22,-12.53 766.28,-24.56 709.74,-61.22 655.34,-99.3 617.53,-161.62 595.68,-197.98"/>
<polygon fill="#ff7847" stroke="#ff7847" points="602.86,-202.43 600.04,-215.91 610.65,-207.13 602.86,-202.43"/>
</g>

<g id="edge16" class="edge">

<path fill="none" stroke="#f8488b" d="M750.89,-180.08C739.02,-219.35 709.73,-313.56 699,-324 664.74,-357.33 609.38,-369.7 572.6,-374.29"/>
<polygon fill="#f8488b" stroke="#f8488b" points="571.84,-370.85 562.28,-375.44 572.61,-377.81 571.84,-370.85"/>
</g>

<g id="edge17" class="edge">

<path fill="none" stroke="#ff507a" d="M767.5,-180.19C784.07,-204.96 814.78,-250.86 833.98,-279.56"/>
<polygon fill="#ff507a" stroke="#ff507a" points="831.07,-281.51 839.54,-287.87 836.89,-277.61 831.07,-281.51"/>
</g>

<g id="edge60" class="edge">

<path fill="none" stroke="black" d="M736.27,-180.01C725.76,-189.79 713.15,-202.74 704,-216 690.63,-235.38 679.74,-259.81 672.55,-278.17"/>
<polygon fill="black" stroke="black" points="669.22,-277.09 668.94,-287.68 675.76,-279.57 669.22,-277.09"/>
</g>

<g id="edge12" class="edge">

<path fill="none" stroke="#f04493" d="M783.38,-152.56C824.05,-140.01 900.52,-116.43 946.09,-102.38"/>
<polygon fill="#f04493" stroke="#f04493" points="947.35,-105.66 955.87,-99.36 945.29,-98.97 947.35,-105.66"/>
</g>

<g id="edge32" class="edge">

<path fill="none" stroke="#fe4b83" d="M728.77,-176.54C700.16,-189.12 655.24,-207.71 623.57,-220.08"/>
<polygon fill="#fe4b83" stroke="#fe4b83" points="622.26,-216.83 614.2,-223.7 624.79,-223.36 622.26,-216.83"/>
</g>

<g id="edge61" class="edge">

<path fill="none" stroke="black" d="M728.98,-153.97C680.54,-141.36 578.88,-114.91 524.01,-100.63"/>
<polygon fill="black" stroke="black" points="524.57,-97.16 514.01,-98.03 522.8,-103.93 524.57,-97.16"/>
</g>

<g id="edge14" class="edge">

<path fill="none" stroke="#ff6856" d="M493.34,-108.31C505.56,-156.31 528.48,-291.44 534.59,-349.7"/>
<polygon fill="#ff6856" stroke="#ff6856" points="531.13,-350.34 535.55,-359.97 538.1,-349.68 531.13,-350.34"/>
</g>

<g id="edge22" class="edge">

<path fill="none" stroke="#ff7847" d="M514.02,-94.95C586.63,-105.65 781.27,-135.04 792,-144 832.17,-177.55 844.99,-240.95 849.08,-277.38"/>
<polygon fill="#ff7847" stroke="#ff7847" points="845.64,-278.14 850.09,-287.76 852.61,-277.47 845.64,-278.14"/>
</g>

<g id="edge30" class="edge">

<path fill="none" stroke="#ff704e" d="M503.7,-108.19C523.66,-132.85 556.03,-178.46 574.17,-207.19"/>
<polygon fill="#ff704e" stroke="#ff704e" points="571.3,-209.2 579.52,-215.87 577.25,-205.52 571.3,-209.2"/>
</g>

<g id="node14" class="node">

<polygon fill="#4c6edb" stroke="#4c6edb" points="368,-612 314,-612 314,-576 368,-576 368,-612"/>
</g>

<g id="edge35" class="edge">

<path fill="none" stroke="black" d="M335.57,-575.77C316.13,-510.4 256.85,-274.79 367,-144 388.07,-118.98 423.28,-105.35 450.13,-98.21"/>
<polygon fill="black" stroke="black" points="451.09,-101.57 459.96,-95.78 449.41,-94.78 451.09,-101.57"/>
</g>

<g id="node15" class="node">

<polygon fill="#3d89e1" stroke="#3d89e1" points="414,-540 360,-540 360,-504 414,-504 414,-540"/>
</g>

<g id="edge36" class="edge">

<path fill="none" stroke="black" d="M352.37,-575.7C357.72,-567.56 364.2,-557.69 370.11,-548.7"/>
<polygon fill="black" stroke="black" points="373.19,-550.38 375.76,-540.1 367.34,-546.54 373.19,-550.38"/>
</g>

<g id="edge47" class="edge">

<path fill="none" stroke="black" d="M404.85,-503.87C430.97,-478.82 479.71,-432.05 509.56,-403.41"/>
<polygon fill="black" stroke="black" points="512.29,-405.64 517.08,-396.19 507.45,-400.59 512.29,-405.64"/>
</g>

<g id="edge48" class="edge">

<path fill="none" stroke="black" d="M381.37,-503.98C363.86,-447.7 315.7,-264.35 388,-144 401.47,-121.58 428.01,-108.1 450.22,-100.35"/>
<polygon fill="black" stroke="black" points="451.3,-103.68 459.74,-97.28 449.15,-97.02 451.3,-103.68"/>
</g>

<g id="node16" class="node">

<polygon fill="#3d89e1" stroke="#3d89e1" points="524,-540 470,-540 470,-504 524,-504 524,-540"/>
</g>

<g id="edge37" class="edge">

<path fill="none" stroke="black" d="M501.58,-503.87C508.09,-479.56 520.06,-434.82 527.77,-406.01"/>
<polygon fill="black" stroke="black" points="531.2,-406.75 530.4,-396.19 524.43,-404.94 531.2,-406.75"/>
</g>

<g id="node18" class="node">

<polygon fill="#3d89e1" stroke="#3d89e1" points="1143,-540 1089,-540 1089,-504 1143,-504 1143,-540"/>
</g>

<g id="edge41" class="edge">

<path fill="none" stroke="black" d="M1088.76,-514.34C994.22,-491.23 680.17,-414.48 572,-388.04"/>
<polygon fill="black" stroke="black" points="572.73,-384.62 562.18,-385.64 571.07,-391.42 572.73,-384.62"/>
</g>

<g id="edge42" class="edge">

<path fill="none" stroke="black" d="M1116,-503.95C1116,-477.29 1116,-424.11 1116,-379 1116,-379 1116,-379 1116,-233 1116,-176.24 1058.7,-132.82 1019.32,-109.67"/>
<polygon fill="black" stroke="black" points="1020.66,-106.41 1010.24,-104.5 1017.2,-112.49 1020.66,-106.41"/>
</g>

<g id="edge43" class="edge">

<path fill="none" stroke="black" d="M1123.69,-503.91C1134.79,-477.62 1154,-425.45 1154,-379 1154,-379 1154,-379 1154,-161 1154,-55.57 1051.17,-75.01 944.99,-36.04"/>
<polygon fill="black" stroke="black" points="945.95,-32.66 935.36,-32.34 943.45,-39.2 945.95,-32.66"/>
</g>

<g id="node19" class="node">

<polygon fill="#3d89e1" stroke="#3d89e1" points="179,-540 125,-540 125,-504 179,-504 179,-540"/>
</g>

<g id="edge49" class="edge">

<path fill="none" stroke="black" d="M165.6,-503.7C172.12,-495.39 180.07,-485.28 187.25,-476.14"/>
<polygon fill="black" stroke="black" points="190.13,-478.13 193.56,-468.1 184.63,-473.81 190.13,-478.13"/>
</g>

<g id="edge50" class="edge">

<path fill="none" stroke="black" d="M144.31,-503.91C133.21,-477.62 114,-425.45 114,-379 114,-379 114,-379 114,-233 114,-192.86 121.55,-146.9 127.13,-118.4"/>
<polygon fill="black" stroke="black" points="130.61,-118.88 129.16,-108.39 123.74,-117.5 130.61,-118.88"/>
</g>

<g id="edge51" class="edge">

<path fill="none" stroke="black" d="M154.5,-503.98C157.43,-485.85 162.92,-456.45 171,-432 182.63,-396.81 201.14,-358.29 213.89,-333.45"/>
<polygon fill="black" stroke="black" points="217.13,-334.8 218.64,-324.31 210.92,-331.57 217.13,-334.8"/>
</g>

<g id="edge52" class="edge">

<path fill="none" stroke="black" d="M179.24,-510.9C246.7,-485.89 421.64,-421.03 498.2,-392.64"/>
<polygon fill="black" stroke="black" points="499.74,-395.81 507.9,-389.05 497.31,-389.24 499.74,-395.81"/>
</g>

<g id="edge53" class="edge">

<path fill="none" stroke="black" d="M137.85,-503.95C130.42,-494.06 121.86,-481.02 117,-468 60.63,-317.05 79.58,-269.04 74,-108 73.28,-87.28 73.87,-63.83 74.58,-46.21"/>
<polygon fill="black" stroke="black" points="78.09,-46.21 75.04,-36.07 71.09,-45.9 78.09,-46.21"/>
</g>

<g id="node20" class="node">

<polygon fill="#aff05b" stroke="#aff05b" points="1007,-36 953,-36 953,0 1007,0 1007,-36"/>
</g>

<g id="node21" class="node">

<polygon fill="#aff05b" stroke="#aff05b" points="1079,-36 1025,-36 1025,0 1079,0 1079,-36"/>
</g>
</g>
</svg>
